<svg width="40" height="7" viewBox="0 0 40 7" fill="none" xmlns="http://www.w3.org/2000/svg">
<path d="M6.31635 3.56273C6.31635 4.42116 6.0623 5.10443 5.55318 5.61457C4.97543 6.221 4.22149 6.52422 3.29545 6.52422C2.40833 6.52422 1.65336 6.2169 1.03361 5.60227C0.412833 4.98662 0.102445 4.22448 0.102445 3.31483C0.102445 2.40415 0.412833 1.64201 1.03361 1.02738C1.65336 0.411729 2.40833 0.104415 3.29545 0.104415C3.73593 0.104415 4.15695 0.190462 4.55646 0.361534C4.95699 0.533631 5.27762 0.762068 5.51733 1.04787L4.97748 1.58874C4.5708 1.10216 4.01046 0.859384 3.29442 0.859384C2.64701 0.859384 2.0877 1.0868 1.61545 1.54162C1.14321 1.99645 0.907608 2.58752 0.907608 3.3138C0.907608 4.04009 1.14321 4.63116 1.61545 5.08599C2.0877 5.54081 2.64701 5.76822 3.29442 5.76822C3.98075 5.76822 4.55339 5.53979 5.01129 5.08189C5.30836 4.78379 5.48045 4.36892 5.52655 3.83726H3.29442V3.09869H6.2723C6.30303 3.25951 6.31635 3.41419 6.31635 3.56273Z" fill="white"/>
<path d="M11.0388 0.995685H8.24024V2.94406H10.7643V3.68264H8.24024V5.63101H11.0388V6.38701H7.45044V0.240715H11.0388V0.995685Z" fill="white"/>
<path d="M14.369 6.38701H13.5792V0.995685H11.8623V0.240715H16.0859V0.995685H14.369V6.38701Z" fill="white"/>
<path d="M19.1416 6.38701V0.240715H19.9314V6.38701H19.1416Z" fill="white"/>
<path d="M23.4339 6.38701H22.6441V0.995685H20.9272V0.240715H25.1507V0.995685H23.4339V6.38701Z" fill="white"/>
<path d="M33.1458 5.5931C32.5414 6.21388 31.7906 6.52427 30.8922 6.52427C29.9938 6.52427 29.2429 6.21388 28.6396 5.5931C28.0352 4.97233 27.734 4.21224 27.734 3.31385C27.734 2.41547 28.0352 1.65538 28.6396 1.0346C29.2429 0.413825 29.9938 0.102413 30.8922 0.102413C31.7854 0.102413 32.5353 0.414849 33.1417 1.0387C33.7482 1.66255 34.0514 2.42059 34.0514 3.31385C34.0514 4.21224 33.7492 4.97233 33.1458 5.5931ZM29.2224 5.07784C29.6773 5.53881 30.2335 5.76827 30.8922 5.76827C31.5509 5.76827 32.1081 5.53779 32.5619 5.07784C33.0168 4.61687 33.2452 4.02887 33.2452 3.31385C33.2452 2.59883 33.0168 2.01084 32.5619 1.54987C32.1081 1.08889 31.5509 0.859432 30.8922 0.859432C30.2335 0.859432 29.6773 1.08992 29.2224 1.54987C28.7686 2.01084 28.5402 2.59883 28.5402 3.31385C28.5402 4.02887 28.7686 4.61687 29.2224 5.07784Z" fill="white"/>
<path d="M35.1598 6.38701V0.240715H36.1207L39.1078 5.02151H39.1416L39.1078 3.83732V0.240715H39.8976V6.38701H39.0729L35.9475 1.37368H35.9137L35.9475 2.55787V6.38701H35.1598Z" fill="white"/>
<path d="M6.31635 3.56273C6.31635 4.42116 6.0623 5.10443 5.55318 5.61457C4.97543 6.221 4.22149 6.52422 3.29545 6.52422C2.40833 6.52422 1.65336 6.2169 1.03361 5.60227C0.412833 4.98662 0.102445 4.22448 0.102445 3.31483C0.102445 2.40415 0.412833 1.64201 1.03361 1.02738C1.65336 0.411729 2.40833 0.104415 3.29545 0.104415C3.73593 0.104415 4.15695 0.190462 4.55646 0.361534C4.95699 0.533631 5.27762 0.762068 5.51733 1.04787L4.97748 1.58874C4.5708 1.10216 4.01046 0.859384 3.29442 0.859384C2.64701 0.859384 2.0877 1.0868 1.61545 1.54162C1.14321 1.99645 0.907608 2.58752 0.907608 3.3138C0.907608 4.04009 1.14321 4.63116 1.61545 5.08599C2.0877 5.54081 2.64701 5.76822 3.29442 5.76822C3.98075 5.76822 4.55339 5.53979 5.01129 5.08189C5.30836 4.78379 5.48045 4.36892 5.52655 3.83726H3.29442V3.09869H6.2723C6.30303 3.25951 6.31635 3.41419 6.31635 3.56273Z" stroke="white" stroke-width="0.2" stroke-miterlimit="10"/>
<path d="M11.0388 0.995685H8.24024V2.94406H10.7643V3.68264H8.24024V5.63101H11.0388V6.38701H7.45044V0.240715H11.0388V0.995685Z" stroke="white" stroke-width="0.2" stroke-miterlimit="10"/>
<path d="M14.369 6.38701H13.5792V0.995685H11.8623V0.240715H16.0859V0.995685H14.369V6.38701Z" stroke="white" stroke-width="0.2" stroke-miterlimit="10"/>
<path d="M19.1416 6.38701V0.240715H19.9314V6.38701H19.1416Z" stroke="white" stroke-width="0.2" stroke-miterlimit="10"/>
<path d="M23.4339 6.38701H22.6441V0.995685H20.9272V0.240715H25.1507V0.995685H23.4339V6.38701Z" stroke="white" stroke-width="0.2" stroke-miterlimit="10"/>
<path d="M33.1458 5.5931C32.5414 6.21388 31.7906 6.52427 30.8922 6.52427C29.9938 6.52427 29.2429 6.21388 28.6396 5.5931C28.0352 4.97233 27.734 4.21224 27.734 3.31385C27.734 2.41547 28.0352 1.65538 28.6396 1.0346C29.2429 0.413825 29.9938 0.102413 30.8922 0.102413C31.7854 0.102413 32.5353 0.414849 33.1417 1.0387C33.7482 1.66255 34.0514 2.42059 34.0514 3.31385C34.0514 4.21224 33.7492 4.97233 33.1458 5.5931ZM29.2224 5.07784C29.6773 5.53881 30.2335 5.76827 30.8922 5.76827C31.5509 5.76827 32.1081 5.53779 32.5619 5.07784C33.0168 4.61687 33.2452 4.02887 33.2452 3.31385C33.2452 2.59883 33.0168 2.01084 32.5619 1.54987C32.1081 1.08889 31.5509 0.859432 30.8922 0.859432C30.2335 0.859432 29.6773 1.08992 29.2224 1.54987C28.7686 2.01084 28.5402 2.59883 28.5402 3.31385C28.5402 4.02887 28.7686 4.61687 29.2224 5.07784Z" stroke="white" stroke-width="0.2" stroke-miterlimit="10"/>
<path d="M35.1598 6.38701V0.240715H36.1207L39.1078 5.02151H39.1416L39.1078 3.83732V0.240715H39.8976V6.38701H39.0729L35.9475 1.37368H35.9137L35.9475 2.55787V6.38701H35.1598Z" stroke="white" stroke-width="0.2" stroke-miterlimit="10"/>
</svg>
