<svg width="24" height="26" viewBox="0 0 24 26" fill="none" xmlns="http://www.w3.org/2000/svg">
<path fill-rule="evenodd" clip-rule="evenodd" d="M0.185356 0.834511C0.0659581 1.10491 0 1.43624 0 1.82163V24.1777C0 24.564 0.0660391 24.8953 0.185576 25.1656L12.3501 12.9993L0.185356 0.834511ZM0.888123 25.8926C1.33902 26.0856 1.92721 26.0244 2.56858 25.6607L16.8794 17.5285L13.0649 13.7141L0.888123 25.8926ZM17.7916 17.0112L22.2813 14.4604C23.6935 13.6567 23.6935 12.3436 22.2813 11.541L17.7896 8.98873L13.7797 12.9993L17.7916 17.0112ZM16.878 8.47075L2.56858 0.339724C1.92717 -0.0247682 1.33895 -0.0855846 0.88804 0.107629L13.0649 12.2845L16.878 8.47075Z" fill="white"/>
</svg>
